<svg data-v-423bf9ae="" xmlns="http://www.w3.org/2000/svg" viewBox="0 0 675.057923289418 60" class="font"><!----><!----><!----><g data-v-423bf9ae="" id="75972c97-21fb-47e1-93c9-471c1687f917" fill="black" transform="matrix(5.7915059834320255,0,0,5.7915059834320255,-8.281847015024937,-4.76837158203125e-7)"><path d="M7.80 3.51C7.80 2.03 7.03 0.57 5.01 0.57L1.43 0.57L1.43 10.22L2.35 10.22L2.35 6.44L3.96 6.44L6.61 10.22L7.73 10.22L5.05 6.44C7.04 6.40 7.80 4.98 7.80 3.51ZM2.35 1.44L5.03 1.44C6.26 1.44 6.87 2.37 6.87 3.51C6.87 4.66 6.30 5.59 4.79 5.59L2.35 5.59ZM15.58 6.93C15.58 4.86 14.22 3.54 12.36 3.54C10.51 3.54 9.03 4.86 9.03 6.93C9.03 9.00 10.51 10.36 12.36 10.36C13.59 10.36 14.71 9.77 15.29 8.72L14.52 8.39C14.08 9.10 13.29 9.51 12.39 9.51C11.07 9.51 10.09 8.72 9.94 7.32L15.57 7.32C15.58 7.20 15.58 7.06 15.58 6.93ZM9.95 6.55C10.12 5.15 11.07 4.40 12.36 4.40C13.64 4.40 14.57 5.19 14.70 6.55ZM19.18 10.36C20.54 10.36 21.59 9.62 21.59 8.46C21.59 7.70 21.20 6.93 19.92 6.62L18.96 6.38C18.48 6.27 17.95 6.01 17.95 5.39C17.95 4.77 18.47 4.34 19.22 4.34C19.87 4.34 20.44 4.73 20.48 5.32L21.35 5.32C21.31 4.14 20.30 3.54 19.21 3.54C17.96 3.54 17.05 4.31 17.05 5.38C17.05 6.47 17.79 6.94 18.72 7.17L19.66 7.39C20.33 7.56 20.69 7.91 20.69 8.44C20.69 9.10 20.12 9.56 19.18 9.56C18.23 9.56 17.72 9.00 17.63 8.46L16.80 8.46C16.91 9.70 18.05 10.36 19.18 10.36ZM26.31 10.36C28.17 10.36 29.74 9.00 29.74 6.93C29.74 4.86 28.17 3.54 26.31 3.54C24.44 3.54 22.89 4.86 22.89 6.93C22.89 9.00 24.44 10.36 26.31 10.36ZM26.31 9.51C24.92 9.51 23.79 8.48 23.79 6.93C23.79 5.39 24.92 4.40 26.31 4.40C27.68 4.40 28.84 5.39 28.84 6.93C28.84 8.48 27.68 9.51 26.31 9.51ZM31.51 10.22L32.41 10.22L32.41 0L31.51 0ZM39.48 3.68L39.48 7.31C39.47 8.89 38.35 9.48 37.31 9.48C36.25 9.48 35.46 8.71 35.46 7.45L35.46 3.68L34.57 3.68L34.57 7.49C34.55 9.30 35.63 10.36 37.21 10.36C38.02 10.36 39.09 10.00 39.48 9.07L39.48 10.22L40.38 10.22L40.38 3.68ZM45.44 3.68L43.95 3.68L43.95 1.08L43.06 1.08L43.06 3.68L41.87 3.68L41.87 4.45L43.06 4.45L43.06 10.22L43.95 10.22L43.95 4.45L45.44 4.45ZM52.78 6.93C52.78 4.86 51.42 3.54 49.56 3.54C47.71 3.54 46.23 4.86 46.23 6.93C46.23 9.00 47.71 10.36 49.56 10.36C50.79 10.36 51.91 9.77 52.49 8.72L51.72 8.39C51.28 9.10 50.48 9.51 49.59 9.51C48.27 9.51 47.29 8.72 47.14 7.32L52.77 7.32C52.78 7.20 52.78 7.06 52.78 6.93ZM47.15 6.55C47.32 5.15 48.27 4.40 49.56 4.40C50.83 4.40 51.77 5.19 51.90 6.55ZM59.42 9.35L59.42 5.92L63.42 5.92L63.42 5.05L59.42 5.05L59.42 1.44L64.01 1.44L64.01 0.57L58.51 0.57L58.51 10.22L64.16 10.22L64.16 9.35ZM69.13 3.54C68.32 3.54 67.26 3.92 66.86 4.86L66.86 3.68L65.97 3.68L65.97 10.22L66.86 10.22L66.86 6.59C66.89 5.01 68.00 4.42 69.05 4.42C70.10 4.42 70.90 5.19 70.90 6.45L70.90 10.22L71.79 10.22L71.79 6.41C71.79 4.61 70.71 3.54 69.13 3.54ZM79.41 0L79.41 4.94C78.92 4.06 77.91 3.54 76.80 3.54C74.97 3.54 73.49 4.96 73.49 6.94C73.49 8.93 74.98 10.36 76.80 10.36C77.90 10.36 78.92 9.84 79.41 8.95L79.41 10.22L80.30 10.22L80.30 0ZM76.87 9.51C75.50 9.51 74.38 8.39 74.38 6.93C74.38 5.49 75.50 4.40 76.87 4.40C78.18 4.40 79.41 5.39 79.41 6.97C79.41 8.48 78.23 9.51 76.87 9.51ZM88.65 6.93C88.65 4.86 87.29 3.54 85.43 3.54C83.58 3.54 82.10 4.86 82.10 6.93C82.10 9.00 83.58 10.36 85.43 10.36C86.66 10.36 87.78 9.77 88.35 8.72L87.58 8.39C87.15 9.10 86.35 9.51 85.46 9.51C84.14 9.51 83.16 8.72 83.01 7.32L88.63 7.32C88.65 7.20 88.65 7.06 88.65 6.93ZM83.02 6.55C83.19 5.15 84.14 4.40 85.43 4.40C86.70 4.40 87.64 5.19 87.77 6.55ZM95.87 3.68L95.87 4.94C95.38 4.06 94.37 3.54 93.27 3.54C91.43 3.54 89.95 4.96 89.95 6.94C89.95 8.93 91.45 10.36 93.27 10.36C94.36 10.36 95.38 9.84 95.87 8.95L95.87 10.22L96.77 10.22L96.77 3.68ZM93.34 9.51C91.97 9.51 90.85 8.39 90.85 6.93C90.85 5.49 91.97 4.40 93.34 4.40C94.64 4.40 95.87 5.39 95.87 6.97C95.87 8.48 94.70 9.51 93.34 9.51ZM103.64 3.68L101.37 9.13L99.13 3.68L98.18 3.68L100.91 10.22L101.84 10.22L104.61 3.68ZM108.79 10.36C110.66 10.36 112.22 9.00 112.22 6.93C112.22 4.86 110.66 3.54 108.79 3.54C106.93 3.54 105.38 4.86 105.38 6.93C105.38 9.00 106.93 10.36 108.79 10.36ZM108.79 9.51C107.41 9.51 106.27 8.48 106.27 6.93C106.27 5.39 107.41 4.40 108.79 4.40C110.17 4.40 111.33 5.39 111.33 6.93C111.33 8.48 110.17 9.51 108.79 9.51ZM116.96 3.54C115.93 3.54 115.23 4.17 114.91 5.28L114.91 3.68L114.00 3.68L114.00 10.22L114.91 10.22L114.91 7.76C114.91 6.15 115.39 4.41 116.94 4.41C117.18 4.41 117.49 4.45 117.82 4.59L117.99 3.74C117.74 3.61 117.32 3.54 116.96 3.54Z"></path></g><!----><!----></svg>